<?xml version="1.0" encoding="UTF-8"?>
<!DOCTYPE svg PUBLIC "-//W3C//DTD SVG 1.1//EN" "http://www.w3.org/Graphics/SVG/1.1/DTD/svg11.dtd">
<!-- Creator: CorelDRAW 2021 (64-Bit) -->
<svg xmlns="http://www.w3.org/2000/svg" xml:space="preserve" width="1.96587in" height="1.41309in" version="1.1" style="shape-rendering:geometricPrecision; text-rendering:geometricPrecision; image-rendering:optimizeQuality; fill-rule:evenodd; clip-rule:evenodd"
viewBox="0 0 39.08 28.09"
 xmlns:xlink="http://www.w3.org/1999/xlink"
 xmlns:xodm="http://www.corel.com/coreldraw/odm/2003">
 <defs>
  <style type="text/css">
   <![CDATA[
    .str11 {stroke:#373435;stroke-width:0.14;stroke-miterlimit:2.61313;stroke-opacity:0.219608}
    .str10 {stroke:#FEFEFE;stroke-width:0.53;stroke-miterlimit:2.61313}
    .str2 {stroke:#FEFEFE;stroke-width:0.55;stroke-linecap:round;stroke-linejoin:round;stroke-miterlimit:2.61313}
    .str0 {stroke:#FEFEFE;stroke-width:0.55;stroke-linecap:round;stroke-linejoin:round;stroke-miterlimit:2.61313}
    .str1 {stroke:#FEFEFE;stroke-width:0.55;stroke-linecap:round;stroke-linejoin:round;stroke-miterlimit:2.61313}
    .str5 {stroke:#FEFEFE;stroke-width:0.55;stroke-linecap:round;stroke-linejoin:round;stroke-miterlimit:2.61313}
    .str7 {stroke:#FEFEFE;stroke-width:0.55;stroke-linecap:round;stroke-linejoin:round;stroke-miterlimit:2.61313}
    .str6 {stroke:#FEFEFE;stroke-width:0.55;stroke-linecap:round;stroke-linejoin:round;stroke-miterlimit:2.61313}
    .str3 {stroke:#FEFEFE;stroke-width:0.55;stroke-linecap:round;stroke-linejoin:round;stroke-miterlimit:2.61313}
    .str8 {stroke:#FEFEFE;stroke-width:0.55;stroke-linecap:round;stroke-linejoin:round;stroke-miterlimit:2.61313}
    .str4 {stroke:#FEFEFE;stroke-width:0.55;stroke-linecap:round;stroke-linejoin:round;stroke-miterlimit:2.61313}
    .str9 {stroke:#FEFEFE;stroke-width:0.55;stroke-linecap:round;stroke-linejoin:round;stroke-miterlimit:2.61313}
    .fil4 {fill:none}
    .fil21 {fill:#FEFEFE}
    .fil14 {fill:#008CD0}
    .fil5 {fill:#680B99}
    .fil12 {fill:#87E46F}
    .fil26 {fill:#CF4400}
    .fil7 {fill:#E01F6E}
    .fil10 {fill:#EB5105}
    .fil2 {fill:#EB5105}
    .fil3 {fill:#FF5400}
    .fil1 {fill:#FF8500}
    .fil9 {fill:#FF9933}
    .fil0 {fill:#FEFEFE;fill-rule:nonzero}
    .fil30 {fill:black;fill-opacity:0.219608}
    .fil29 {fill:#FF5400;fill-opacity:0.960784}
    .fil24 {fill:#FF5400}
    .fil27 {fill:#FF8500}
    .fil19 {fill:url(#id55)}
    .fil15 {fill:url(#id56)}
    .fil8 {fill:url(#id57)}
    .fil13 {fill:url(#id58)}
    .fil6 {fill:url(#id59)}
    .fil34 {fill:url(#id60)}
    .fil20 {fill:url(#id61)}
    .fil16 {fill:url(#id62)}
    .fil11 {fill:url(#id63)}
    .fil17 {fill:url(#id64)}
    .fil33 {fill:url(#id65)}
    .fil25 {fill:url(#id66)}
    .fil31 {fill:url(#id67)}
    .fil35 {fill:url(#id68)}
    .fil18 {fill:url(#id69)}
    .fil32 {fill:url(#id70)}
    .fil23 {fill:url(#id71)}
    .fil28 {fill:url(#id72)}
    .fil22 {fill:url(#id73)}
   ]]>
  </style>
   <clipPath id="id0">
    <path d="M31.71 4.96l7.1 2.68 0 0 0 2.12 0 0 0 15.94 0 2.12 -8.05 -3.07 -0 -2.12 -0 -3.76 3.07 -1.16 0 5.48 1.9 0.73 0 -0 0.55 0.22 -0.55 -0.83 -0 -14.19 0 -0 -4.02 -1.51 -0 -1.95 -0.57 -0.89 0.57 0.22 0 0z"/>
   </clipPath>
     <mask id="id1">
  <linearGradient id="id2" gradientUnits="userSpaceOnUse" x1="34.92" y1="4.75" x2="35.03" y2="8.74">
   <stop offset="0" style="stop-opacity:1; stop-color:white"/>
   <stop offset="1" style="stop-opacity:0; stop-color:white"/>
  </linearGradient>
      <rect style="fill:url(#id2)" x="30.06" y="4.68" width="10.72" height="4.28"/>
     </mask>
     <mask id="id3">
  <linearGradient id="id4" gradientUnits="userSpaceOnUse" x1="34.92" y1="9.49" x2="35.03" y2="13.48">
   <stop offset="0" style="stop-opacity:1; stop-color:white"/>
   <stop offset="1" style="stop-opacity:0; stop-color:white"/>
  </linearGradient>
      <rect style="fill:url(#id4)" x="30.06" y="9.42" width="10.72" height="4.28"/>
     </mask>
     <mask id="id5">
  <linearGradient id="id6" gradientUnits="userSpaceOnUse" x1="34.92" y1="14.23" x2="35.03" y2="18.22">
   <stop offset="0" style="stop-opacity:1; stop-color:white"/>
   <stop offset="1" style="stop-opacity:0; stop-color:white"/>
  </linearGradient>
      <rect style="fill:url(#id6)" x="30.06" y="14.16" width="10.72" height="4.28"/>
     </mask>
     <mask id="id7">
  <linearGradient id="id8" gradientUnits="userSpaceOnUse" x1="34.92" y1="18.97" x2="35.03" y2="22.96">
   <stop offset="0" style="stop-opacity:1; stop-color:white"/>
   <stop offset="1" style="stop-opacity:0; stop-color:white"/>
  </linearGradient>
      <rect style="fill:url(#id8)" x="30.06" y="18.9" width="10.72" height="4.28"/>
     </mask>
     <mask id="id9">
  <linearGradient id="id10" gradientUnits="userSpaceOnUse" x1="34.92" y1="23.71" x2="35.03" y2="27.7">
   <stop offset="0" style="stop-opacity:1; stop-color:white"/>
   <stop offset="1" style="stop-opacity:0; stop-color:white"/>
  </linearGradient>
      <rect style="fill:url(#id10)" x="30.06" y="23.64" width="10.72" height="4.28"/>
     </mask>
   <clipPath id="id11">
    <path d="M9.81 24.47l-8.78 3.35 -0 -2.12 -0 -6.12 -0 -2.21 5.7 -2.15 -0.75 -0.26 -0 -6.47 -2.58 0.99 0.75 0.26 0 3.42 -3.13 1.09 -0 -0.85 -0 -3.59 -0 -1.57 -0.75 -0.26 8.78 -3.35 0 9.73 0 2.1 0 0.1 -2.66 1 -2.24 0.84 0 3.1 0 2.35 2.58 -0.99 -0.75 -0.26 -0 -1.79 3.07 -1.14 0 2.96 0 1.57 0.75 0.26z"/>
   </clipPath>
     <mask id="id12">
  <linearGradient id="id13" gradientUnits="userSpaceOnUse" x1="4.4" y1="4.61" x2="4.51" y2="8.6">
   <stop offset="0" style="stop-opacity:1; stop-color:white"/>
   <stop offset="1" style="stop-opacity:0; stop-color:white"/>
  </linearGradient>
      <rect style="fill:url(#id13)" x="-0.46" y="4.54" width="10.72" height="4.28"/>
     </mask>
     <mask id="id14">
  <linearGradient id="id15" gradientUnits="userSpaceOnUse" x1="4.4" y1="9.35" x2="4.51" y2="13.34">
   <stop offset="0" style="stop-opacity:1; stop-color:white"/>
   <stop offset="1" style="stop-opacity:0; stop-color:white"/>
  </linearGradient>
      <rect style="fill:url(#id15)" x="-0.46" y="9.28" width="10.72" height="4.28"/>
     </mask>
     <mask id="id16">
  <linearGradient id="id17" gradientUnits="userSpaceOnUse" x1="4.4" y1="14.09" x2="4.51" y2="18.08">
   <stop offset="0" style="stop-opacity:1; stop-color:white"/>
   <stop offset="1" style="stop-opacity:0; stop-color:white"/>
  </linearGradient>
      <rect style="fill:url(#id17)" x="-0.46" y="14.02" width="10.72" height="4.28"/>
     </mask>
     <mask id="id18">
  <linearGradient id="id19" gradientUnits="userSpaceOnUse" x1="4.4" y1="18.83" x2="4.51" y2="22.82">
   <stop offset="0" style="stop-opacity:1; stop-color:white"/>
   <stop offset="1" style="stop-opacity:0; stop-color:white"/>
  </linearGradient>
      <rect style="fill:url(#id19)" x="-0.46" y="18.76" width="10.72" height="4.28"/>
     </mask>
     <mask id="id20">
  <linearGradient id="id21" gradientUnits="userSpaceOnUse" x1="4.4" y1="23.57" x2="4.51" y2="27.56">
   <stop offset="0" style="stop-opacity:1; stop-color:white"/>
   <stop offset="1" style="stop-opacity:0; stop-color:white"/>
  </linearGradient>
      <rect style="fill:url(#id21)" x="-0.46" y="23.5" width="10.72" height="4.28"/>
     </mask>
    <clipPath id="id22">
     <path d="M24.61 3.3c0.11,0.32 0.07,0.75 -0.04,1.15 -0.26,0.97 -0.99,1.68 -1.74,1.68 -0.75,0 -1.17,-1.04 -0.95,-1.94 0.14,-0.6 0.49,-1.22 0.98,-1.49 0.56,-0.3 1.5,-0.07 1.74,0.6z"/>
    </clipPath>
     <clipPath id="id23">
      <path d="M24.36 5c-0.35,0.58 -0.89,0.96 -1.43,0.96 -0.75,0 -1.17,-1.04 -0.95,-1.94 0.05,-0.23 0.14,-0.46 0.25,-0.67 0.17,-0.28 0.39,-0.51 0.65,-0.65 0.56,-0.3 1.5,-0.07 1.74,0.6 0.11,0.32 0.07,0.75 -0.04,1.15 -0.05,0.2 -0.13,0.39 -0.22,0.56z"/>
     </clipPath>
       <mask id="id24">
  <linearGradient id="id25" gradientUnits="userSpaceOnUse" x1="23.39" y1="2.05" x2="23.4" y2="4.11">
   <stop offset="0" style="stop-opacity:1; stop-color:white"/>
   <stop offset="1" style="stop-opacity:0; stop-color:white"/>
  </linearGradient>
        <rect style="fill:url(#id25)" x="20.83" y="2.24" width="5.3" height="2.09"/>
       </mask>
     <clipPath id="id26">
      <path d="M24.61 3.3c0.11,0.32 0.07,0.75 -0.04,1.15 -0.26,0.97 -0.99,1.68 -1.74,1.68 -0.75,0 -1.17,-1.04 -0.95,-1.94 0.14,-0.6 0.49,-1.22 0.98,-1.49 0.56,-0.3 1.5,-0.07 1.74,0.6z"/>
     </clipPath>
    <clipPath id="id27">
     <path d="M26.85 4.94c-0.24,1.43 -1.91,1.49 -1.91,-0 0,-0.98 0.88,-1.62 1.43,-1.48 0.43,0.11 0.59,0.84 0.49,1.48z"/>
    </clipPath>
    <clipPath id="id28">
     <path d="M28.08 4.95c0.67,0.09 0.7,0.64 0.57,1.14 -0.13,0.49 -0.55,0.76 -0.94,0.76 -1.11,-0 -0.85,-2.06 0.37,-1.9z"/>
    </clipPath>
    <clipPath id="id29">
     <path d="M29.46 6.38c0.47,0.08 0.49,0.59 0.37,0.88 -0.12,0.29 -0.46,0.51 -0.72,0.5 -0.75,-0.03 -0.52,-1.53 0.35,-1.38z"/>
    </clipPath>
    <clipPath id="id30">
     <path d="M30.52 7.84c0.45,0.05 0.46,0.56 0.35,0.83 -0.11,0.27 -0.41,0.47 -0.66,0.46 -0.77,-0.02 -0.54,-1.39 0.3,-1.29z"/>
    </clipPath>
    <clipPath id="id31">
     <path d="M16.25 1.01c-0.11,0.32 -0.07,0.75 0.04,1.15 0.26,0.97 0.99,1.68 1.74,1.68 0.75,0 1.17,-1.04 0.95,-1.94 -0.14,-0.6 -0.49,-1.22 -0.98,-1.49 -0.56,-0.3 -1.5,-0.07 -1.74,0.6z"/>
    </clipPath>
     <clipPath id="id32">
      <path d="M16.5 2.72c0.35,0.58 0.89,0.96 1.43,0.96 0.75,0 1.17,-1.04 0.95,-1.94 -0.05,-0.23 -0.14,-0.46 -0.25,-0.67 -0.17,-0.28 -0.39,-0.51 -0.65,-0.65 -0.56,-0.3 -1.5,-0.07 -1.74,0.6 -0.11,0.32 -0.07,0.75 0.04,1.15 0.05,0.2 0.13,0.39 0.22,0.56z"/>
     </clipPath>
       <mask id="id33">
  <linearGradient id="id34" gradientUnits="userSpaceOnUse" x1="17.47" y1="-0.24" x2="17.46" y2="1.82">
   <stop offset="0" style="stop-opacity:1; stop-color:white"/>
   <stop offset="1" style="stop-opacity:0; stop-color:white"/>
  </linearGradient>
        <rect style="fill:url(#id34)" x="14.73" y="-0.05" width="5.3" height="2.09"/>
       </mask>
     <clipPath id="id35">
      <path d="M16.25 1.01c-0.11,0.32 -0.07,0.75 0.04,1.15 0.26,0.97 0.99,1.68 1.74,1.68 0.75,0 1.17,-1.04 0.95,-1.94 -0.14,-0.6 -0.49,-1.22 -0.98,-1.49 -0.56,-0.3 -1.5,-0.07 -1.74,0.6z"/>
     </clipPath>
    <clipPath id="id36">
     <path d="M14.01 2.66c0.24,1.43 1.91,1.49 1.91,-0 0,-0.98 -0.88,-1.62 -1.43,-1.48 -0.43,0.11 -0.59,0.84 -0.49,1.48z"/>
    </clipPath>
    <clipPath id="id37">
     <path d="M12.78 2.66c-0.67,0.09 -0.7,0.64 -0.57,1.14 0.13,0.49 0.55,0.76 0.94,0.76 1.11,-0 0.85,-2.06 -0.37,-1.9z"/>
    </clipPath>
    <clipPath id="id38">
     <path d="M11.4 4.09c-0.47,0.08 -0.49,0.59 -0.37,0.88 0.12,0.29 0.46,0.51 0.72,0.5 0.75,-0.03 0.52,-1.53 -0.35,-1.38z"/>
    </clipPath>
    <clipPath id="id39">
     <path d="M10.34 5.56c-0.45,0.05 -0.46,0.56 -0.35,0.83 0.11,0.27 0.41,0.47 0.66,0.46 0.77,-0.02 0.54,-1.39 -0.3,-1.29z"/>
    </clipPath>
   <clipPath id="id40">
    <path d="M16.83 20.27c4.09,-3.19 3.27,-3.05 6.62,-0.26 0.22,0.18 0.36,0.29 0.58,0.46l-0.89 1.5c-3.66,-3.67 -1.86,-3.55 -5.46,-0.11l-0.86 -1.59z"/>
   </clipPath>
   <clipPath id="id41">
    <path d="M23.36 7.31c2.94,-0.53 7.18,3.04 6.51,6.39 -0.41,1.51 -0.91,2.24 -1.58,3.51 -0.8,1.43 -0.83,2.49 -1.17,3.98 -0.23,1.68 -0.35,2.88 -1.15,4.21 -0.39,0.64 -0.81,1.01 -1.52,1.25 -0.66,0.23 -1.36,0.19 -2.01,-0.18 -0.44,-0.25 -0.82,-0.6 -0.99,-1.2 -0.97,-3.34 1.95,-4.21 2.65,-6.53 1.96,-6.47 -2.44,-4.56 -2.96,-6.78 -0.44,-1.89 0.15,-4.13 2.22,-4.65z"/>
   </clipPath>
     <mask id="id42">
  <linearGradient id="id43" gradientUnits="userSpaceOnUse" x1="27.78" y1="10.61" x2="15.24" y2="10.61">
   <stop offset="0" style="stop-opacity:0; stop-color:white"/>
   <stop offset="0.721569" style="stop-opacity:0.501961; stop-color:white"/>
   <stop offset="1" style="stop-opacity:1; stop-color:white"/>
  </linearGradient>
      <rect style="fill:url(#id43)" x="20.39" y="5.08" width="9.25" height="9.71"/>
     </mask>
    <clipPath id="id44">
     <path d="M21.06 10.04c5.03,0.51 5.58,9.13 6.83,7.33 -0,0.24 -0.01,0.49 -0.03,0.74 -0.4,1.02 -0.48,1.92 -0.74,3.09l-0.03 0.2c-0.03,0.05 -0.07,0.1 -0.11,0.14 -1.11,1.3 -3.01,0.83 -4.48,-0.36 0.62,-0.75 1.3,-1.46 1.59,-2.43 1.96,-6.47 -2.44,-4.56 -2.96,-6.78 -0.15,-0.63 -0.18,-1.29 -0.08,-1.92z"/>
    </clipPath>
    <clipPath id="id45">
     <path d="M23.36 7.31c2.94,-0.53 7.18,3.04 6.51,6.39 -0.41,1.51 -0.91,2.24 -1.58,3.51 -0.8,1.43 -0.83,2.49 -1.17,3.98 -0.23,1.68 -0.35,2.88 -1.15,4.21 -0.39,0.64 -0.81,1.01 -1.52,1.25 -0.66,0.23 -1.36,0.19 -2.01,-0.18 -0.44,-0.25 -0.82,-0.6 -0.99,-1.2 -0.97,-3.34 1.95,-4.21 2.65,-6.53 1.96,-6.47 -2.44,-4.56 -2.96,-6.78 -0.44,-1.89 0.15,-4.13 2.22,-4.65z"/>
    </clipPath>
    <clipPath id="id46">
     <path d="M24.27 18.18c1.07,0.84 2.05,1.47 2.93,2.7 -0.02,0.1 -0.04,0.21 -0.07,0.32 -0.2,1.46 -0.32,2.57 -0.87,3.7 -1.1,-1.33 -3.02,-1.93 -4.48,-2.71 0.7,-1.19 1.91,-2.06 2.33,-3.44 0.06,-0.2 0.11,-0.39 0.16,-0.57z"/>
    </clipPath>
    <clipPath id="id47">
     <path d="M23.36 7.31c2.94,-0.53 7.18,3.04 6.51,6.39 -0.41,1.51 -0.91,2.24 -1.58,3.51 -0.8,1.43 -0.83,2.49 -1.17,3.98 -0.23,1.68 -0.35,2.88 -1.15,4.21 -0.39,0.64 -0.81,1.01 -1.52,1.25 -0.66,0.23 -1.36,0.19 -2.01,-0.18 -0.44,-0.25 -0.82,-0.6 -0.99,-1.2 -0.97,-3.34 1.95,-4.21 2.65,-6.53 1.96,-6.47 -2.44,-4.56 -2.96,-6.78 -0.44,-1.89 0.15,-4.13 2.22,-4.65z"/>
    </clipPath>
   <clipPath id="id48">
    <path d="M16.98 5.01c-2.94,-0.53 -7.18,3.04 -6.51,6.39 0.41,1.51 0.91,2.24 1.58,3.51 0.8,1.43 0.83,2.49 1.17,3.98 0.23,1.68 0.35,2.88 1.15,4.21 0.39,0.64 0.81,1.01 1.52,1.25 0.66,0.23 1.36,0.19 2.01,-0.18 0.44,-0.25 0.82,-0.6 0.99,-1.2 0.97,-3.34 -1.95,-4.21 -2.65,-6.53 -1.96,-6.47 2.44,-4.56 2.96,-6.78 0.44,-1.89 -0.15,-4.13 -2.22,-4.65z"/>
   </clipPath>
     <mask id="id49">
  <linearGradient id="id50" gradientUnits="userSpaceOnUse" x1="12.81" y1="8.47" x2="25.36" y2="8.47">
   <stop offset="0" style="stop-opacity:0; stop-color:white"/>
   <stop offset="0.721569" style="stop-opacity:0.501961; stop-color:white"/>
   <stop offset="1" style="stop-opacity:1; stop-color:white"/>
  </linearGradient>
      <rect style="fill:url(#id50)" x="10.97" y="2.94" width="9.25" height="9.71"/>
     </mask>
    <clipPath id="id51">
     <path d="M19.31 7.99c-4.96,0.59 -5.51,9.11 -6.75,7.32 0,0.26 0.01,0.54 0.03,0.81 0.3,0.9 0.39,1.73 0.62,2.77l0.04 0.27c0.07,0.13 0.13,0.23 0.21,0.32 1.12,1.31 3.06,0.82 4.53,-0.41 -0.66,-0.82 -1.43,-1.58 -1.75,-2.63 -1.96,-6.47 2.44,-4.56 2.96,-6.78 0.13,-0.54 0.17,-1.12 0.12,-1.67z"/>
    </clipPath>
    <clipPath id="id52">
     <path d="M16.98 5.01c-2.94,-0.53 -7.18,3.04 -6.51,6.39 0.41,1.51 0.91,2.24 1.58,3.51 0.8,1.43 0.83,2.49 1.17,3.98 0.23,1.68 0.35,2.88 1.15,4.21 0.39,0.64 0.81,1.01 1.52,1.25 0.66,0.23 1.36,0.19 2.01,-0.18 0.44,-0.25 0.82,-0.6 0.99,-1.2 0.97,-3.34 -1.95,-4.21 -2.65,-6.53 -1.96,-6.47 2.44,-4.56 2.96,-6.78 0.44,-1.89 -0.15,-4.13 -2.22,-4.65z"/>
    </clipPath>
    <clipPath id="id53">
     <path d="M16.16 16.17c-1.07,0.83 -2.06,1.49 -2.93,2.82 0.21,1.54 0.34,2.68 1.01,3.9 1.05,-1.39 2.97,-2 4.45,-2.77 -0.67,-1.31 -2.01,-2.2 -2.45,-3.67 -0.03,-0.09 -0.06,-0.19 -0.08,-0.28z"/>
    </clipPath>
    <clipPath id="id54">
     <path d="M16.98 5.01c-2.94,-0.53 -7.18,3.04 -6.51,6.39 0.41,1.51 0.91,2.24 1.58,3.51 0.8,1.43 0.83,2.49 1.17,3.98 0.23,1.68 0.35,2.88 1.15,4.21 0.39,0.64 0.81,1.01 1.52,1.25 0.66,0.23 1.36,0.19 2.01,-0.18 0.44,-0.25 0.82,-0.6 0.99,-1.2 0.97,-3.34 -1.95,-4.21 -2.65,-6.53 -1.96,-6.47 2.44,-4.56 2.96,-6.78 0.44,-1.89 -0.15,-4.13 -2.22,-4.65z"/>
    </clipPath>
  <linearGradient id="id55" gradientUnits="userSpaceOnUse" x1="11.45" y1="4.14" x2="11.7" y2="5.4">
   <stop offset="0" style="stop-opacity:1; stop-color:#FF8500"/>
   <stop offset="1" style="stop-opacity:1; stop-color:#FF5400"/>
  </linearGradient>
  <linearGradient id="id56" gradientUnits="userSpaceOnUse" xlink:href="#id55" x1="30.13" y1="7.93" x2="30.62" y2="8.92">
  </linearGradient>
  <linearGradient id="id57" gradientUnits="userSpaceOnUse" x1="26.6" y1="4.67" x2="24.87" y2="3.53">
   <stop offset="0" style="stop-opacity:1; stop-color:#FF5400"/>
   <stop offset="0.839216" style="stop-opacity:1; stop-color:#FF6C00"/>
   <stop offset="1" style="stop-opacity:1; stop-color:#FF8500"/>
  </linearGradient>
  <linearGradient id="id58" gradientUnits="userSpaceOnUse" xlink:href="#id55" x1="29.15" y1="6.43" x2="29.4" y2="7.69">
  </linearGradient>
  <linearGradient id="id59" gradientUnits="userSpaceOnUse" xlink:href="#id55" x1="22.66" y1="3.11" x2="25.13" y2="5.77">
  </linearGradient>
  <linearGradient id="id60" gradientUnits="userSpaceOnUse" x1="13.14" y1="20.32" x2="20.38" y2="15.97">
   <stop offset="0" style="stop-opacity:1; stop-color:#FF5400"/>
   <stop offset="0.839216" style="stop-opacity:1; stop-color:#FF7619"/>
   <stop offset="1" style="stop-opacity:1; stop-color:#FF9933"/>
  </linearGradient>
  <linearGradient id="id61" gradientUnits="userSpaceOnUse" xlink:href="#id55" x1="10.37" y1="5.65" x2="10.85" y2="6.64">
  </linearGradient>
  <linearGradient id="id62" gradientUnits="userSpaceOnUse" xlink:href="#id55" x1="18.2" y1="0.83" x2="15.73" y2="3.49">
  </linearGradient>
  <linearGradient id="id63" gradientUnits="userSpaceOnUse" xlink:href="#id55" x1="26.59" y1="4.45" x2="28.5" y2="6.33">
  </linearGradient>
  <linearGradient id="id64" gradientUnits="userSpaceOnUse" xlink:href="#id57" x1="15.61" y1="2.39" x2="13.87" y2="1.24">
  </linearGradient>
  <linearGradient id="id65" gradientUnits="userSpaceOnUse" xlink:href="#id55" x1="16.88" y1="20.54" x2="21.76" y2="27.91">
  </linearGradient>
  <linearGradient id="id66" gradientUnits="userSpaceOnUse" xlink:href="#id55" x1="22.15" y1="22.68" x2="27.03" y2="30.05">
  </linearGradient>
  <linearGradient id="id67" gradientUnits="userSpaceOnUse" x1="29.91" y1="18.28" x2="23" y2="8">
   <stop offset="0" style="stop-opacity:1; stop-color:#FF5400"/>
   <stop offset="1" style="stop-opacity:1; stop-color:#FF8500"/>
  </linearGradient>
  <linearGradient id="id68" gradientUnits="userSpaceOnUse" xlink:href="#id67" x1="10.69" y1="16.14" x2="17.6" y2="5.86">
  </linearGradient>
  <linearGradient id="id69" gradientUnits="userSpaceOnUse" xlink:href="#id55" x1="11.75" y1="2.16" x2="13.66" y2="4.04">
  </linearGradient>
  <linearGradient id="id70" gradientUnits="userSpaceOnUse" x1="20.69" y1="10.66" x2="12.25" y2="16">
   <stop offset="0" style="stop-opacity:1; stop-color:#FF5400"/>
   <stop offset="0.431373" style="stop-opacity:1; stop-color:#FF6C00"/>
   <stop offset="1" style="stop-opacity:1; stop-color:#FF8500"/>
  </linearGradient>
  <linearGradient id="id71" gradientUnits="userSpaceOnUse" xlink:href="#id70" x1="19.76" y1="12.72" x2="28.21" y2="18.05">
  </linearGradient>
  <linearGradient id="id72" gradientUnits="userSpaceOnUse" xlink:href="#id60" x1="27.46" y1="22.46" x2="20.22" y2="18.11">
  </linearGradient>
  <linearGradient id="id73" gradientUnits="userSpaceOnUse" xlink:href="#id67" x1="20.51" y1="21.66" x2="20.71" y2="17.09">
  </linearGradient>
 </defs>
 <g id="Layer_x0020_1">
  <metadata id="CorelCorpID_0Corel-Layer"/>
  <g>
   <path class="fil0" d="M38.71 7.9l-7.1 -2.68 0.2 -0.52 7.1 2.68 0.18 0.26 -0.38 0.26zm0.2 -0.52c0.14,0.05 0.22,0.21 0.16,0.36 -0.05,0.14 -0.22,0.22 -0.36,0.16l0.2 -0.52zm-0.38 0.26l0 -0 0.56 0 0 0 -0.56 0zm0.56 0c0,0.15 -0.12,0.28 -0.28,0.28 -0.15,0 -0.28,-0.12 -0.28,-0.28l0.56 0zm-0.56 2.12l-0 -2.12 0.56 0 0 2.12 0 0 -0.56 0zm0.56 0c0,0.15 -0.12,0.28 -0.28,0.28 -0.15,0 -0.28,-0.12 -0.28,-0.28l0.56 0zm-0.56 0l0 -0 0.56 0 0 0 -0.56 0zm0.56 0c0,0.15 -0.12,0.28 -0.28,0.28 -0.15,0 -0.28,-0.12 -0.28,-0.28l0.56 0zm-0.56 15.94l-0 -15.94 0.56 0 0 15.94 0 0 -0.56 0zm0.56 0c0,0.15 -0.12,0.28 -0.28,0.28 -0.15,0 -0.28,-0.12 -0.28,-0.28l0.56 0zm-0.56 2.12l-0 -2.12 0.56 0 0 2.12 -0.38 0.26 -0.18 -0.26zm0.56 0c0,0.15 -0.12,0.28 -0.28,0.28 -0.15,0 -0.28,-0.12 -0.28,-0.28l0.56 0zm-8.23 -3.33l8.05 3.07 -0.2 0.52 -8.05 -3.07 -0.18 -0.26 0.38 -0.26zm-0.2 0.52c-0.14,-0.05 -0.22,-0.22 -0.16,-0.36 0.06,-0.14 0.22,-0.21 0.36,-0.16l-0.2 0.52zm0.38 -2.38l0 2.12 -0.56 0 -0 -2.12 0.56 0zm-0.56 0c0,-0.15 0.12,-0.28 0.28,-0.28 0.15,0 0.28,0.12 0.28,0.28l-0.56 0zm0.56 -3.76l0 3.76 -0.56 0 -0 -3.76 0.18 -0.26 0.38 0.26zm-0.56 0c0,-0.15 0.12,-0.28 0.28,-0.28 0.15,0 0.28,0.12 0.28,0.28l-0.56 0zm3.45 -0.9l-3.07 1.16 -0.2 -0.52 3.07 -1.16 0.38 0.26 -0.18 0.26zm-0.2 -0.52c0.14,-0.05 0.3,0.02 0.36,0.16 0.05,0.14 -0.02,0.3 -0.16,0.36l-0.2 -0.52zm-0.18 5.74l-0 -5.48 0.56 0 0 5.48 -0.38 0.26 -0.18 -0.26zm0.56 0c0,0.15 -0.12,0.28 -0.28,0.28 -0.15,0 -0.28,-0.12 -0.28,-0.28l0.56 0zm1.52 0.98l-1.9 -0.73 0.2 -0.52 1.9 0.73 0.18 0.26 -0.38 0.26zm0.2 -0.52c0.14,0.05 0.22,0.22 0.16,0.36 -0.06,0.14 -0.22,0.21 -0.36,0.16l0.2 -0.52zm0.18 0.26l0 0 -0.56 0 0 -0 0.38 -0.26 0.18 0.26zm-0.56 0c0,-0.15 0.12,-0.28 0.28,-0.28 0.15,0 0.28,0.12 0.28,0.28l-0.56 0zm0.73 0.47l-0.55 -0.22 0.2 -0.52 0.55 0.22 0.13 0.11 -0.33 0.41zm0.2 -0.52c0.14,0.06 0.21,0.22 0.16,0.36 -0.06,0.14 -0.22,0.21 -0.36,0.16l0.2 -0.52zm-0.42 -0.73l0.55 0.83 -0.46 0.31 -0.55 -0.83 -0.05 -0.15 0.51 -0.15zm-0.46 0.31c-0.08,-0.13 -0.05,-0.3 0.08,-0.38 0.13,-0.08 0.3,-0.05 0.39,0.08l-0.46 0.31zm0.51 -14.35l0 14.19 -0.56 0 -0 -14.19 0 0 0.56 0zm-0.56 0c0,-0.15 0.12,-0.28 0.28,-0.28 0.15,0 0.28,0.12 0.28,0.28l-0.56 0zm0.56 -0l0 0 -0.56 0 0 -0 0.38 -0.26 0.18 0.26zm-0.56 0c0,-0.15 0.12,-0.28 0.28,-0.28 0.15,0 0.28,0.12 0.28,0.28l-0.56 0zm-3.64 -1.77l4.02 1.51 -0.2 0.52 -4.02 -1.51 -0.18 -0.26 0.38 -0.26zm-0.2 0.52c-0.14,-0.05 -0.22,-0.21 -0.16,-0.36 0.05,-0.14 0.22,-0.22 0.36,-0.16l-0.2 0.52zm0.38 -2.21l0 1.95 -0.56 0 -0 -1.95 0.51 -0.15 0.04 0.15zm-0.56 0c0,-0.15 0.12,-0.28 0.28,-0.28 0.15,0 0.28,0.12 0.28,0.28l-0.56 0zm-0.06 -1.04l0.57 0.89 -0.47 0.3 -0.57 -0.89 0.33 -0.41 0.14 0.11zm-0.47 0.3c-0.08,-0.13 -0.04,-0.3 0.09,-0.38 0.13,-0.08 0.3,-0.04 0.38,0.09l-0.47 0.3zm0.71 0.33l-0.57 -0.22 0.2 -0.52 0.57 0.22 -0.2 0.52 -0 -0zm0.2 -0.52c0.14,0.05 0.22,0.21 0.16,0.36 -0.05,0.14 -0.22,0.21 -0.36,0.16l0.2 -0.52zm-0.1 0.26l0 0 0 0 0 0 0.1 -0.26 -0.1 0.26zm0.1 -0.26c0.14,0.05 0.22,0.21 0.16,0.36 -0.05,0.14 -0.22,0.21 -0.36,0.16l0.2 -0.52z"/>
  </g>
  <polygon id="_1" class="fil1" points="31.71,4.96 38.81,7.64 38.81,7.64 38.81,9.75 38.81,9.76 38.81,25.7 38.81,27.81 30.76,24.74 30.76,22.62 30.76,18.86 33.83,17.7 33.83,23.18 35.73,23.9 35.73,23.9 36.28,24.12 35.73,23.29 35.73,9.09 35.73,9.09 31.71,7.58 31.71,5.63 31.14,4.74 31.71,4.96 "/>
  <g style="clip-path:url(#id0)">
   <g>
    <polygon id="_2" class="fil2" style="mask:url(#id1)" points="30.13,4.75 40.71,4.75 40.71,8.89 30.13,8.89 "/>
    <polygon class="fil2" style="mask:url(#id3)" points="30.13,9.49 40.71,9.49 40.71,13.63 30.13,13.63 "/>
    <polygon class="fil2" style="mask:url(#id5)" points="30.13,14.23 40.71,14.23 40.71,18.37 30.13,18.37 "/>
    <polygon class="fil2" style="mask:url(#id7)" points="30.13,18.97 40.71,18.97 40.71,23.11 30.13,23.11 "/>
    <polygon class="fil2" style="mask:url(#id9)" points="30.13,23.7 40.71,23.7 40.71,27.85 30.13,27.85 "/>
   </g>
  </g>
  <g>
   <path class="fil0" d="M0.93 27.56l8.78 -3.35 0.2 0.52 -8.78 3.35 -0.38 -0.26 0.18 -0.26zm0.2 0.52c-0.14,0.05 -0.3,-0.02 -0.36,-0.16 -0.06,-0.14 0.02,-0.3 0.16,-0.36l0.2 0.52zm0.18 -2.38l0 2.12 -0.56 0 -0 -2.12 0.56 0zm-0.56 0c0,-0.15 0.12,-0.28 0.28,-0.28 0.15,0 0.28,0.12 0.28,0.28l-0.56 0zm0.56 -6.12l0 6.12 -0.56 0 -0 -6.12 0 0 0.56 0zm-0.56 0c0,-0.15 0.12,-0.28 0.28,-0.28 0.15,0 0.28,0.12 0.28,0.28l-0.56 0zm0.56 -2.21l0 2.21 -0.56 0 -0 -2.21 0.18 -0.26 0.38 0.26zm-0.56 0c0,-0.15 0.12,-0.28 0.28,-0.28 0.15,0 0.28,0.12 0.28,0.28l-0.56 0zm6.08 -1.9l-5.7 2.15 -0.2 -0.52 5.7 -2.15 0.19 -0 0.01 0.52zm-0.2 -0.52c0.14,-0.05 0.3,0.02 0.36,0.16 0.05,0.14 -0.02,0.3 -0.16,0.36l-0.2 -0.52zm-0.56 -0.26l0.75 0.26 -0.18 0.52 -0.75 -0.26 -0.19 -0.26 0.37 -0.26zm-0.18 0.52c-0.15,-0.05 -0.22,-0.21 -0.17,-0.35 0.05,-0.14 0.21,-0.22 0.35,-0.17l-0.18 0.52zm0.37 -6.74l0 6.47 -0.56 0 -0 -6.47 0.18 -0.26 0.38 0.26zm-0.56 0c0,-0.15 0.12,-0.28 0.28,-0.28 0.15,0 0.28,0.12 0.28,0.28l-0.56 0zm-2.4 0.73l2.58 -0.99 0.2 0.52 -2.58 0.99 -0.19 0 -0.01 -0.52zm0.2 0.52c-0.14,0.06 -0.3,-0.02 -0.36,-0.16 -0.06,-0.14 0.02,-0.3 0.16,-0.36l0.2 0.52zm0.56 0.26l-0.75 -0.26 0.18 -0.52 0.75 0.26 0.19 0.26 -0.37 0.26zm0.18 -0.52c0.15,0.05 0.22,0.21 0.17,0.35 -0.05,0.14 -0.21,0.22 -0.35,0.17l0.18 -0.52zm-0.37 3.68l-0 -3.42 0.56 0 0 3.42 -0.19 0.26 -0.37 -0.26zm0.56 0c0,0.15 -0.12,0.28 -0.28,0.28 -0.15,0 -0.28,-0.12 -0.28,-0.28l0.56 0zm-3.5 0.83l3.13 -1.09 0.18 0.52 -3.13 1.09 -0.37 -0.26 0.19 -0.26zm0.18 0.52c-0.15,0.05 -0.3,-0.03 -0.36,-0.17 -0.05,-0.14 0.03,-0.3 0.17,-0.35l0.18 0.52zm0.19 -1.11l0 0.85 -0.56 0 -0 -0.85 0 0 0.56 0zm-0.56 0c0,-0.15 0.12,-0.28 0.28,-0.28 0.15,0 0.28,0.12 0.28,0.28l-0.56 0zm0.56 -3.59l0 3.59 -0.56 0 -0 -3.59 0.56 0zm-0.56 0c0,-0.15 0.12,-0.28 0.28,-0.28 0.15,0 0.28,0.12 0.28,0.28l-0.56 0zm0.56 -1.57l0 1.57 -0.56 0 -0 -1.57 0.37 -0.26 0.19 0.26zm-0.56 0c0,-0.15 0.12,-0.28 0.28,-0.28 0.15,0 0.28,0.12 0.28,0.28l-0.56 0zm-0.38 -0.52l0.75 0.26 -0.18 0.52 -0.75 -0.26 -0.01 -0.52 0.19 -0zm-0.18 0.52c-0.15,-0.05 -0.22,-0.21 -0.17,-0.35 0.05,-0.14 0.21,-0.22 0.35,-0.17l-0.18 0.52zm8.97 -3.35l-8.78 3.35 -0.2 -0.52 8.78 -3.35 0.38 0.26 -0.18 0.26zm-0.2 -0.52c0.14,-0.05 0.3,0.02 0.36,0.16 0.06,0.14 -0.02,0.3 -0.16,0.36l-0.2 -0.52zm-0.18 9.99l-0 -9.73 0.56 0 0 9.73 -0.56 0zm0.56 0c0,0.15 -0.12,0.28 -0.28,0.28 -0.15,0 -0.28,-0.12 -0.28,-0.28l0.56 0zm-0.56 2.1l-0 -2.1 0.56 0 0 2.1 0 0 -0.56 0zm0.56 0c0,0.15 -0.12,0.28 -0.28,0.28 -0.15,0 -0.28,-0.12 -0.28,-0.28l0.56 0zm-0.56 0.1l0 -0.1 0.56 0 0 0.1 -0.18 0.26 -0.38 -0.26zm0.56 0c0,0.15 -0.12,0.28 -0.28,0.28 -0.15,0 -0.28,-0.12 -0.28,-0.28l0.56 0zm-3.04 0.74l2.66 -1 0.2 0.52 -2.66 1 0 0 -0.2 -0.52zm0.2 0.52c-0.14,0.05 -0.3,-0.02 -0.36,-0.16 -0.05,-0.14 0.02,-0.3 0.16,-0.36l0.2 0.52zm-2.44 0.33l2.24 -0.84 0.2 0.52 -2.24 0.84 -0.38 -0.26 0.18 -0.26zm0.2 0.52c-0.14,0.05 -0.3,-0.02 -0.36,-0.16 -0.05,-0.14 0.02,-0.3 0.16,-0.36l0.2 0.52zm-0.38 2.84l-0 -3.1 0.56 0 0 3.1 -0.56 0zm0.56 0c0,0.15 -0.12,0.28 -0.28,0.28 -0.15,0 -0.28,-0.12 -0.28,-0.28l0.56 0zm-0.56 2.35l-0 -2.35 0.56 0 0 2.35 -0.18 0.26 -0.38 -0.26zm0.56 0c0,0.15 -0.12,0.28 -0.28,0.28 -0.15,0 -0.28,-0.12 -0.28,-0.28l0.56 0zm2.4 -0.73l-2.58 0.99 -0.2 -0.52 2.58 -0.99 0.19 -0 0.01 0.52zm-0.2 -0.52c0.14,-0.05 0.31,0.02 0.36,0.16 0.06,0.14 -0.02,0.3 -0.16,0.36l-0.2 -0.52zm-0.56 -0.26l0.75 0.26 -0.18 0.52 -0.75 -0.26 -0.19 -0.26 0.37 -0.26zm-0.18 0.52c-0.15,-0.05 -0.22,-0.21 -0.17,-0.35 0.05,-0.14 0.21,-0.22 0.35,-0.17l-0.18 0.52zm0.37 -2.05l0 1.79 -0.56 0 -0 -1.79 0.18 -0.26 0.38 0.26zm-0.56 0c0,-0.15 0.12,-0.28 0.28,-0.28 0.15,0 0.28,0.12 0.28,0.28l-0.56 0zm3.45 -0.88l-3.07 1.14 -0.19 -0.52 3.07 -1.14 0.38 0.26 -0.18 0.26zm-0.19 -0.52c0.14,-0.05 0.3,0.02 0.36,0.16 0.05,0.14 -0.02,0.3 -0.16,0.36l-0.19 -0.52zm-0.18 3.22l-0 -2.96 0.56 0 0 2.96 0 0 -0.56 0zm0.56 0c0,0.15 -0.12,0.28 -0.28,0.28 -0.15,0 -0.28,-0.12 -0.28,-0.28l0.56 0zm-0.56 1.57l0 -1.57 0.56 0 0 1.57 -0.37 0.26 -0.19 -0.26zm0.56 0c0,0.15 -0.12,0.28 -0.28,0.28 -0.15,0 -0.28,-0.12 -0.28,-0.28l0.56 0zm0.38 0.52l-0.75 -0.26 0.18 -0.52 0.75 0.26 0.01 0.52 -0.19 0zm0.18 -0.52c0.15,0.05 0.22,0.21 0.17,0.35 -0.05,0.14 -0.21,0.22 -0.35,0.17l0.18 -0.52z"/>
  </g>
  <polygon id="_1_0" class="fil1" points="9.81,24.47 1.03,27.82 1.03,25.7 1.03,19.58 1.03,17.37 6.73,15.22 5.98,14.96 5.98,8.49 3.41,9.47 4.16,9.73 4.16,13.15 1.03,14.23 1.03,13.39 1.03,9.79 1.03,8.22 0.28,7.96 9.06,4.61 9.06,14.35 9.06,16.45 9.06,16.55 6.4,17.55 4.16,18.4 4.16,21.5 4.16,23.85 6.73,22.87 5.98,22.61 5.98,20.82 9.06,19.68 9.06,22.64 9.06,24.21 "/>
  <g style="clip-path:url(#id11)">
   <g>
    <polygon id="_2_1" class="fil3" style="mask:url(#id12)" points="-0.39,4.61 10.19,4.61 10.19,8.75 -0.39,8.75 "/>
    <polygon class="fil3" style="mask:url(#id14)" points="-0.39,9.35 10.19,9.35 10.19,13.49 -0.39,13.49 "/>
    <polygon class="fil3" style="mask:url(#id16)" points="-0.39,14.09 10.19,14.09 10.19,18.23 -0.39,18.23 "/>
    <polygon class="fil3" style="mask:url(#id18)" points="-0.39,18.83 10.19,18.83 10.19,22.97 -0.39,22.97 "/>
    <polygon class="fil3" style="mask:url(#id20)" points="-0.39,23.56 10.19,23.56 10.19,27.71 -0.39,27.71 "/>
   </g>
  </g>
  <g>
   <g>
    <path class="fil4 str0" d="M24.61 3.3c0.11,0.32 0.07,0.75 -0.04,1.15 -0.26,0.97 -0.99,1.68 -1.74,1.68 -0.75,0 -1.17,-1.04 -0.95,-1.94 0.14,-0.6 0.49,-1.22 0.98,-1.49 0.56,-0.3 1.5,-0.07 1.74,0.6z"/>
   </g>
   <path id="_1_2" class="fil5" d="M24.61 3.3c0.11,0.32 0.07,0.75 -0.04,1.15 -0.26,0.97 -0.99,1.68 -1.74,1.68 -0.75,0 -1.17,-1.04 -0.95,-1.94 0.14,-0.6 0.49,-1.22 0.98,-1.49 0.56,-0.3 1.5,-0.07 1.74,0.6z"/>
   <g style="clip-path:url(#id22)">
    <g>
     <rect class="fil3" x="20.6" y="1.57" width="5.12" height="6.16"/>
     <path class="fil6" d="M24.7 3.14c0.11,0.32 0.07,0.75 -0.04,1.15 -0.26,0.97 -0.99,1.68 -1.74,1.68 -0.75,0 -1.17,-1.04 -0.95,-1.94 0.14,-0.6 0.49,-1.22 0.98,-1.49 0.56,-0.3 1.5,-0.07 1.74,0.6z"/>
    </g>
    <g style="clip-path:url(#id23)">
     <g>
      <polygon id="_1_3" class="fil3" style="mask:url(#id24)" points="20.9,2.31 26.06,2.31 26.06,4.26 20.9,4.26 "/>
     </g>
    </g>
    <g style="clip-path:url(#id26)">
     <path class="fil4" d="M24.7 3.14c0.11,0.32 0.07,0.75 -0.04,1.15 -0.26,0.97 -0.99,1.68 -1.74,1.68 -0.75,0 -1.17,-1.04 -0.95,-1.94 0.14,-0.6 0.49,-1.22 0.98,-1.49 0.56,-0.3 1.5,-0.07 1.74,0.6z"/>
    </g>
   </g>
   <g>
    <path class="fil4 str1" d="M26.85 4.94c-0.24,1.43 -1.91,1.49 -1.91,-0 0,-0.98 0.88,-1.62 1.43,-1.48 0.43,0.11 0.59,0.84 0.49,1.48z"/>
   </g>
   <path id="_1_4" class="fil7" d="M26.85 4.94c-0.24,1.43 -1.91,1.49 -1.91,-0 0,-0.98 0.88,-1.62 1.43,-1.48 0.43,0.11 0.59,0.84 0.49,1.48z"/>
   <g style="clip-path:url(#id27)">
    <g>
     <rect class="fil2" x="24.43" y="3.07" width="3.55" height="3.51"/>
     <path class="fil8" d="M26.87 4.77c-0.24,1.43 -1.91,1.49 -1.91,-0 0,-0.98 0.88,-1.62 1.43,-1.48 0.43,0.11 0.59,0.84 0.49,1.48z"/>
    </g>
   </g>
   <g>
    <path class="fil4 str2" d="M28.08 4.95c0.67,0.09 0.7,0.64 0.57,1.14 -0.13,0.49 -0.55,0.76 -0.94,0.76 -1.11,-0 -0.85,-2.06 0.37,-1.9z"/>
   </g>
   <path id="_1_5" class="fil9" d="M28.08 4.95c0.67,0.09 0.7,0.64 0.57,1.14 -0.13,0.49 -0.55,0.76 -0.94,0.76 -1.11,-0 -0.85,-2.06 0.37,-1.9z"/>
   <g style="clip-path:url(#id28)">
    <g>
     <rect class="fil10" x="26.74" y="4.19" width="2.3" height="3.11"/>
     <path class="fil11" d="M28.07 4.81c0.67,0.09 0.7,0.64 0.57,1.14 -0.13,0.49 -0.55,0.76 -0.94,0.76 -1.11,-0 -0.85,-2.06 0.37,-1.9z"/>
    </g>
   </g>
   <g>
    <path class="fil4 str3" d="M29.46 6.38c0.47,0.08 0.49,0.59 0.37,0.88 -0.12,0.29 -0.46,0.51 -0.72,0.5 -0.75,-0.03 -0.52,-1.53 0.35,-1.38z"/>
   </g>
   <path id="_1_6" class="fil12" d="M29.46 6.38c0.47,0.08 0.49,0.59 0.37,0.88 -0.12,0.29 -0.46,0.51 -0.72,0.5 -0.75,-0.03 -0.52,-1.53 0.35,-1.38z"/>
   <g style="clip-path:url(#id29)">
    <g>
     <rect class="fil2" x="28.41" y="6.15" width="1.83" height="1.8"/>
     <path class="fil13" d="M29.46 6.3c0.47,0.08 0.49,0.59 0.37,0.88 -0.12,0.29 -0.46,0.51 -0.72,0.5 -0.75,-0.03 -0.52,-1.53 0.35,-1.38z"/>
    </g>
   </g>
   <g>
    <path class="fil4 str4" d="M30.52 7.84c0.45,0.05 0.46,0.56 0.35,0.83 -0.11,0.27 -0.41,0.47 -0.66,0.46 -0.77,-0.02 -0.54,-1.39 0.3,-1.29z"/>
   </g>
   <path id="_1_7" class="fil14" d="M30.52 7.84c0.45,0.05 0.46,0.56 0.35,0.83 -0.11,0.27 -0.41,0.47 -0.66,0.46 -0.77,-0.02 -0.54,-1.39 0.3,-1.29z"/>
   <g style="clip-path:url(#id30)">
    <g>
     <rect class="fil2" x="29.63" y="7.29" width="1.82" height="2.17"/>
     <path class="fil15" d="M30.5 7.77c0.45,0.05 0.46,0.56 0.35,0.83 -0.11,0.27 -0.41,0.47 -0.66,0.46 -0.77,-0.02 -0.54,-1.39 0.3,-1.29z"/>
    </g>
   </g>
  </g>
  <g>
   <g>
    <path class="fil4 str5" d="M16.25 1.01c-0.11,0.32 -0.07,0.75 0.04,1.15 0.26,0.97 0.99,1.68 1.74,1.68 0.75,0 1.17,-1.04 0.95,-1.94 -0.14,-0.6 -0.49,-1.22 -0.98,-1.49 -0.56,-0.3 -1.5,-0.07 -1.74,0.6z"/>
   </g>
   <path id="_1_8" class="fil5" d="M16.25 1.01c-0.11,0.32 -0.07,0.75 0.04,1.15 0.26,0.97 0.99,1.68 1.74,1.68 0.75,0 1.17,-1.04 0.95,-1.94 -0.14,-0.6 -0.49,-1.22 -0.98,-1.49 -0.56,-0.3 -1.5,-0.07 -1.74,0.6z"/>
   <g style="clip-path:url(#id31)">
    <g>
     <rect class="fil3" x="15.13" y="-0.72" width="5.12" height="6.16"/>
     <path class="fil16" d="M16.16 0.85c-0.11,0.32 -0.07,0.75 0.04,1.15 0.26,0.97 0.99,1.68 1.74,1.68 0.75,0 1.17,-1.04 0.95,-1.94 -0.14,-0.6 -0.49,-1.22 -0.98,-1.49 -0.56,-0.3 -1.5,-0.07 -1.74,0.6z"/>
    </g>
    <g style="clip-path:url(#id32)">
     <g>
      <polygon id="_1_9" class="fil3" style="mask:url(#id33)" points="19.96,0.02 14.8,0.02 14.8,1.97 19.96,1.97 "/>
     </g>
    </g>
    <g style="clip-path:url(#id35)">
     <path class="fil4" d="M16.16 0.85c-0.11,0.32 -0.07,0.75 0.04,1.15 0.26,0.97 0.99,1.68 1.74,1.68 0.75,0 1.17,-1.04 0.95,-1.94 -0.14,-0.6 -0.49,-1.22 -0.98,-1.49 -0.56,-0.3 -1.5,-0.07 -1.74,0.6z"/>
    </g>
   </g>
   <g>
    <path class="fil4 str6" d="M14.01 2.66c0.24,1.43 1.91,1.49 1.91,-0 0,-0.98 -0.88,-1.62 -1.43,-1.48 -0.43,0.11 -0.59,0.84 -0.49,1.48z"/>
   </g>
   <path id="_1_10" class="fil7" d="M14.01 2.66c0.24,1.43 1.91,1.49 1.91,-0 0,-0.98 -0.88,-1.62 -1.43,-1.48 -0.43,0.11 -0.59,0.84 -0.49,1.48z"/>
   <g style="clip-path:url(#id36)">
    <g>
     <rect class="fil2" x="12.88" y="0.79" width="3.55" height="3.51"/>
     <path class="fil17" d="M13.99 2.48c0.24,1.43 1.91,1.49 1.91,-0 0,-0.98 -0.88,-1.62 -1.43,-1.48 -0.43,0.11 -0.59,0.84 -0.49,1.48z"/>
    </g>
   </g>
   <g>
    <path class="fil4 str7" d="M12.78 2.66c-0.67,0.09 -0.7,0.64 -0.57,1.14 0.13,0.49 0.55,0.76 0.94,0.76 1.11,-0 0.85,-2.06 -0.37,-1.9z"/>
   </g>
   <path id="_1_11" class="fil9" d="M12.78 2.66c-0.67,0.09 -0.7,0.64 -0.57,1.14 0.13,0.49 0.55,0.76 0.94,0.76 1.11,-0 0.85,-2.06 -0.37,-1.9z"/>
   <g style="clip-path:url(#id37)">
    <g>
     <rect class="fil10" x="11.82" y="1.9" width="2.3" height="3.11"/>
     <path class="fil18" d="M12.79 2.52c-0.67,0.09 -0.7,0.64 -0.57,1.14 0.13,0.49 0.55,0.76 0.94,0.76 1.11,0 0.85,-2.06 -0.37,-1.9z"/>
    </g>
   </g>
   <g>
    <path class="fil4 str8" d="M11.4 4.09c-0.47,0.08 -0.49,0.59 -0.37,0.88 0.12,0.29 0.46,0.51 0.72,0.5 0.75,-0.03 0.52,-1.53 -0.35,-1.38z"/>
   </g>
   <path id="_1_12" class="fil12" d="M11.4 4.09c-0.47,0.08 -0.49,0.59 -0.37,0.88 0.12,0.29 0.46,0.51 0.72,0.5 0.75,-0.03 0.52,-1.53 -0.35,-1.38z"/>
   <g style="clip-path:url(#id38)">
    <g>
     <rect class="fil2" x="10.62" y="3.87" width="1.83" height="1.8"/>
     <path class="fil19" d="M11.4 4.01c-0.47,0.08 -0.49,0.59 -0.37,0.88 0.12,0.29 0.46,0.51 0.72,0.5 0.75,-0.03 0.52,-1.53 -0.35,-1.38z"/>
    </g>
   </g>
   <g>
    <path class="fil4 str9" d="M10.34 5.56c-0.45,0.05 -0.46,0.56 -0.35,0.83 0.11,0.27 0.41,0.47 0.66,0.46 0.77,-0.02 0.54,-1.39 -0.3,-1.29z"/>
   </g>
   <path id="_1_13" class="fil14" d="M10.34 5.56c-0.45,0.05 -0.46,0.56 -0.35,0.83 0.11,0.27 0.41,0.47 0.66,0.46 0.77,-0.02 0.54,-1.39 -0.3,-1.29z"/>
   <g style="clip-path:url(#id39)">
    <g>
     <rect class="fil2" x="9.41" y="5" width="1.82" height="2.17"/>
     <path class="fil20" d="M10.37 5.48c-0.45,0.05 -0.46,0.56 -0.35,0.83 0.11,0.27 0.41,0.47 0.66,0.46 0.77,-0.02 0.54,-1.39 -0.3,-1.29z"/>
    </g>
   </g>
  </g>
  <g>
   <path class="fil21 str10" d="M16.15 16.17c-0.05,0.14 -0.86,0.97 -1.09,1.23 -0.11,0.13 -0.27,0.27 -0.39,0.42 -0.2,0.27 -0.52,0.55 -0.71,0.85 -0.07,0.11 -0.24,0.32 -0.33,0.44 -0.04,0.06 -0.27,0.43 -0.32,0.47 0,0.26 0.08,0.64 0.12,0.9 0.05,0.29 0.1,0.57 0.17,0.85 0.07,0.27 0.4,1.3 0.57,1.47 0.44,-0.48 0.33,-0.45 0.93,-0.91l0.51 -0.36c0.34,-0.24 1.36,-0.74 1.77,-0.93 0.21,-0.1 0.42,-0.18 0.62,-0.29 0.12,-0.06 0.51,-0.26 0.62,-0.29 0.03,0.1 0.03,0.07 -0.09,0.15 -0.46,0.34 -1.07,0.68 -1.56,1.02l-0.57 0.39c-0.3,0.2 -0.79,0.59 -1.03,0.84 -0.2,0.21 -0.47,0.55 -0.59,0.81 -0.05,0.1 -0.07,0.27 -0.15,0.34 0.89,1 2.26,1.32 3.41,0.56 0.59,-0.39 0.81,-0.81 0.94,-1.48 0.06,-0.31 0.14,-0.77 0.09,-1.09 -0.01,-0.09 -0.01,-0.17 -0.02,-0.27 -0.02,-0.1 -0.02,-0.17 -0.05,-0.27 -0.04,-0.17 -0.1,-0.33 -0.14,-0.48 0.25,-0.29 0.57,-0.58 0.85,-0.86 0.36,-0.37 0.64,-0.6 1.11,-0.23 0.29,0.23 1.28,1.47 1.59,1.85 -0.04,0.09 -0.11,0.15 -0.17,0.23l-0.5 0.71c0.11,0.02 0.21,0.09 0.31,0.14l1.53 0.72c0.03,0.01 0.05,0.02 0.08,0.04l1.1 0.58c0,0 0.01,0.01 0.01,0.01 0,0 0.01,0.01 0.01,0.01l0.77 0.53c0.26,0.21 0.46,0.45 0.69,0.67 0.69,-1.48 0.68,-2.72 0.98,-4.24 0.21,-1.03 0.35,-1.98 0.8,-2.95 0.54,-1.14 1.65,-2.81 1.86,-4.11 0.02,-0.16 0.04,-0.31 0.04,-0.47l0 -0.27c-0.07,-2.02 -1.67,-3.87 -3.37,-4.83 -0.58,-0.33 -1.57,-0.73 -2.22,-0.75 -0.46,-0.02 -0.83,-0.05 -1.31,0.13 -0.35,0.13 -0.67,0.31 -0.95,0.56 -0.71,0.64 -1.09,1.71 -1.09,2.63 0,0.57 0.01,1.42 0.37,1.89 1.02,1.34 4.19,0.53 2.94,5.47 -0.08,0.33 -0.2,0.8 -0.35,1.14 -0.09,0.2 -0.41,0.82 -0.56,0.95 -0.49,-0.29 -1.55,-1.48 -2.4,-1.97 -0.59,-0.35 -1.06,-0.12 -1.59,0.23 -0.23,0.15 -1.08,0.79 -1.23,0.97 -0.17,-0.14 -0.44,-0.51 -0.59,-0.7 -0.38,-0.46 -0.82,-0.98 -1.09,-1.51 -0.2,-0.39 -0.31,-0.83 -0.37,-0.95z"/>
   <path class="fil21 str10" d="M13.25 18.76c0.07,-0.03 0.43,-0.55 0.54,-0.67 0.04,-0.05 0.04,-0.02 0.09,-0.08 0.11,-0.13 0.2,-0.24 0.32,-0.36 0.12,-0.12 0.27,-0.23 0.38,-0.34l0.17 -0.16c0.03,-0.03 0.17,-0.15 0.19,-0.16 0.29,-0.2 0.86,-0.7 1.19,-0.91l-0.24 -1.03c-0.05,-0.24 -0.14,-0.88 -0.14,-1.13 -0,-0.69 0.08,-1.44 0.56,-1.97 1.24,-1.36 3.03,-0.6 3.03,-3.31 0,-0.1 -0,-0.21 0,-0.31 0,-0.26 -0.07,-0.6 -0.11,-0.84 -0.09,-0.52 -0.49,-1.31 -0.88,-1.67 -0.48,-0.45 -1.12,-0.78 -1.74,-0.79 -0.25,-0 -0.05,-0.04 -0.42,-0 -0.05,0.01 -0.1,-0 -0.15,0 -0.43,0.02 -1.17,0.24 -1.54,0.39 -2.27,0.93 -4.49,3.46 -4.05,5.99 0.18,1.04 1.05,2.57 1.57,3.52 0.34,0.62 0.54,1.12 0.73,1.8 0.09,0.34 0.15,0.7 0.22,1.04 0.04,0.18 0.07,0.35 0.12,0.53 0.03,0.13 0.14,0.37 0.16,0.48z"/>
   <path class="fil21 str10" d="M25.84 25.69c-0.22,-0.49 -0.42,-0.74 -0.8,-1.09l-1.02 -0.8c-0.01,-0 -0.02,-0.01 -0.03,-0.02l-1.62 -1.05c-0,-0 -0.01,-0.01 -0.01,-0.01 -0.03,-0.02 -0.02,-0.01 -0.04,-0.03l-0.57 -0.42 -0.11 0.21c-0.14,0.28 -0.29,0.69 -0.34,1 -0.1,0.68 -0.03,1.4 0.22,2.06 0.12,0.31 0.34,0.56 0.59,0.76 0.62,0.5 1.35,0.66 2.1,0.49 0.48,-0.11 0.96,-0.36 1.31,-0.71 0.13,-0.13 0.22,-0.28 0.32,-0.38z"/>
   <path class="fil21 str10" d="M14.18 22.8l0.12 0.23c0,0 0.01,0.01 0.01,0.01 0.15,0.25 0.19,0.29 0.29,0.44l0.01 0.02c0.03,0.05 0.01,0.01 0.04,0.06 0.08,-0.07 0.11,-0.24 0.15,-0.34 0.12,-0.26 0.39,-0.6 0.59,-0.81 0.24,-0.25 0.73,-0.64 1.03,-0.84l0.57 -0.39c0.49,-0.33 1.1,-0.68 1.56,-1.02 0.12,-0.09 0.12,-0.05 0.09,-0.15 -0.11,0.03 -0.5,0.22 -0.62,0.29 -0.2,0.11 -0.41,0.19 -0.62,0.29 -0.41,0.19 -1.43,0.69 -1.77,0.93l-0.51 0.36c-0.6,0.46 -0.49,0.43 -0.93,0.91z"/>
   <path class="fil21 str10" d="M25.84 25.69c0.04,-0.02 0.03,-0.02 0.06,-0.06l0.37 -0.69c-0.23,-0.22 -0.42,-0.46 -0.69,-0.67l-0.77 -0.53c-0,-0 -0.01,-0.01 -0.01,-0.01 -0,-0 -0.01,-0.01 -0.01,-0.01l-1.1 -0.58c-0.02,-0.01 -0.05,-0.02 -0.08,-0.04l-1.53 -0.72c-0.1,-0.05 -0.2,-0.12 -0.31,-0.14l-0.01 0.03 0.57 0.42c0.02,0.01 0.01,0.01 0.04,0.03 0,0 0.01,0.01 0.01,0.01l1.62 1.05c0.01,0 0.02,0.01 0.03,0.02l1.02 0.8c0.38,0.35 0.57,0.6 0.8,1.09z"/>
   <path class="fil21 str10" d="M13.25 18.76c-0.07,0.18 -0.02,0.23 -0,0.41l0.05 0.29c0.01,0.1 -0.02,0.06 0.02,0.12 0.05,-0.04 0.28,-0.42 0.32,-0.47 0.09,-0.13 0.26,-0.33 0.33,-0.44 0.19,-0.29 0.51,-0.58 0.71,-0.85 0.11,-0.15 0.27,-0.28 0.39,-0.42 0.22,-0.26 1.03,-1.09 1.09,-1.23l0.01 -0.02 -0.02 -0.07 -0 -0.01c-0.34,0.21 -0.9,0.71 -1.19,0.91 -0.02,0.01 -0.15,0.13 -0.19,0.16l-0.17 0.16c-0.11,0.11 -0.26,0.22 -0.38,0.34 -0.12,0.12 -0.21,0.24 -0.32,0.36 -0.05,0.06 -0.05,0.03 -0.09,0.08 -0.1,0.12 -0.47,0.64 -0.54,0.67z"/>
   <polygon class="fil21 str10" points="16.16,16.15 16.14,16.08 "/>
  </g>
  <g>
   <path class="fil21" d="M25.79 13.14c1.28,-0.23 3.12,1.32 2.83,2.78 -0.18,0.66 -0.39,0.97 -0.69,1.53 -0.35,0.62 -0.36,1.08 -0.51,1.73 -0.1,0.73 -0.15,1.25 -0.5,1.83 -0.17,0.28 -0.35,0.44 -0.66,0.55 -0.29,0.1 -0.59,0.08 -0.87,-0.08 -0.19,-0.11 -0.36,-0.26 -0.43,-0.52 -0.42,-1.45 0.57,-1.96 1.15,-2.84 0.41,-0.63 1.15,-1.82 0.08,-2.37 -0.32,-0.16 -0.73,0.12 -0.95,0.03 -0.23,-0.1 -0.39,-0.3 -0.45,-0.58 -0.22,-0.85 0.07,-1.83 1,-2.07z"/>
   <g>
    <path class="fil21" d="M26.06 11.62c0.06,0.14 0.05,0.32 0.01,0.5 -0.09,0.43 -0.38,0.75 -0.71,0.77 -0.33,0.02 -0.53,-0.42 -0.46,-0.82 0.05,-0.26 0.18,-0.54 0.39,-0.67 0.24,-0.15 0.65,-0.07 0.77,0.22z"/>
    <path class="fil21" d="M27.08 12.28c-0.07,0.63 -0.79,0.7 -0.83,0.05 -0.03,-0.42 0.34,-0.73 0.58,-0.68 0.19,0.04 0.28,0.35 0.25,0.63z"/>
    <path class="fil21" d="M27.61 12.25c0.29,0.02 0.32,0.26 0.28,0.48 -0.04,0.22 -0.22,0.35 -0.39,0.36 -0.48,0.03 -0.42,-0.87 0.11,-0.84z"/>
    <path class="fil21" d="M28.25 12.84c0.21,0.02 0.23,0.24 0.18,0.37 -0.04,0.13 -0.19,0.23 -0.3,0.23 -0.33,0.01 -0.27,-0.65 0.11,-0.61z"/>
    <path class="fil21" d="M28.74 13.45c0.2,0.01 0.22,0.23 0.17,0.35 -0.04,0.12 -0.17,0.21 -0.27,0.22 -0.33,0.01 -0.27,-0.59 0.1,-0.57z"/>
   </g>
  </g>
  <g>
   <path class="fil21" d="M14.69 10.81c-1.28,-0.23 -3.12,1.32 -2.83,2.78 0.18,0.66 0.39,0.97 0.69,1.53 0.35,0.62 0.36,1.08 0.51,1.73 0.1,0.73 0.15,1.25 0.5,1.83 0.17,0.28 0.35,0.44 0.66,0.55 0.29,0.1 0.59,0.08 0.87,-0.08 0.19,-0.11 0.36,-0.26 0.43,-0.52 0.42,-1.45 -0.57,-1.96 -1.15,-2.84 -0.41,-0.63 -1.15,-1.82 -0.08,-2.37 0.32,-0.16 0.73,0.12 0.95,0.03 0.23,-0.1 0.39,-0.3 0.45,-0.58 0.22,-0.85 -0.07,-1.83 -1,-2.07z"/>
   <g>
    <path class="fil21" d="M14.41 9.29c-0.06,0.14 -0.05,0.32 -0.01,0.5 0.09,0.43 0.38,0.75 0.71,0.77 0.33,0.02 0.53,-0.42 0.46,-0.82 -0.05,-0.26 -0.18,-0.54 -0.39,-0.67 -0.24,-0.15 -0.65,-0.07 -0.77,0.22z"/>
    <path class="fil21" d="M13.39 9.95c0.07,0.63 0.79,0.7 0.83,0.05 0.03,-0.42 -0.34,-0.73 -0.58,-0.68 -0.19,0.04 -0.28,0.35 -0.25,0.63z"/>
    <path class="fil21" d="M12.86 9.92c-0.29,0.02 -0.32,0.26 -0.28,0.48 0.04,0.22 0.22,0.35 0.39,0.36 0.48,0.03 0.42,-0.87 -0.11,-0.84z"/>
    <path class="fil21" d="M12.22 10.51c-0.21,0.02 -0.23,0.24 -0.18,0.37 0.04,0.13 0.19,0.23 0.3,0.23 0.33,0.01 0.27,-0.65 -0.11,-0.61z"/>
    <path class="fil21" d="M11.73 11.11c-0.2,0.01 -0.22,0.23 -0.17,0.35 0.04,0.12 0.17,0.21 0.27,0.22 0.33,0.01 0.27,-0.59 -0.1,-0.57z"/>
   </g>
  </g>
  <path class="fil4" d="M16.83 20.27c4.09,-3.19 3.27,-3.05 6.62,-0.26 0.22,0.18 0.36,0.29 0.58,0.46l-0.89 1.5c-3.66,-3.67 -1.86,-3.55 -5.46,-0.11l-0.86 -1.59z"/>
  <path id="_1_14" class="fil2" d="M16.83 20.27c4.09,-3.19 3.27,-3.05 6.62,-0.26 0.22,0.18 0.36,0.29 0.58,0.46l-0.89 1.5c-3.66,-3.67 -1.86,-3.55 -5.46,-0.11l-0.86 -1.59z"/>
  <g style="clip-path:url(#id40)">
   <g>
    <path id="_2_15" class="fil22" d="M16.07 19.99c5.43,-3.94 3.89,-3.67 8.69,0.67l-1.16 1.76c-4.24,-4.63 -2.02,-4.18 -6.6,-0.31l-0.93 -2.13z"/>
   </g>
  </g>
  <path class="fil4" d="M23.36 7.31c2.94,-0.53 7.18,3.04 6.51,6.39 -0.41,1.51 -0.91,2.24 -1.58,3.51 -0.8,1.43 -0.83,2.49 -1.17,3.98 -0.23,1.68 -0.35,2.88 -1.15,4.21 -0.39,0.64 -0.81,1.01 -1.52,1.25 -0.66,0.23 -1.36,0.19 -2.01,-0.18 -0.44,-0.25 -0.82,-0.6 -0.99,-1.2 -0.97,-3.34 1.95,-4.21 2.65,-6.53 1.96,-6.47 -2.44,-4.56 -2.96,-6.78 -0.44,-1.89 0.15,-4.13 2.22,-4.65z"/>
  <g>
  </g>
  <g style="clip-path:url(#id41)">
   <g>
    <path id="_1_16" class="fil1" d="M20.05 9.76c5.15,-7.41 11.44,0.6 11.93,7.51 -0.05,5.96 -9.51,1.99 -11.32,-1.01 0.62,-1.44 -1.24,-5.06 -0.61,-6.5z"/>
    <polygon class="fil3" style="mask:url(#id42)" points="20.45,5.15 29.56,5.15 29.56,14.72 20.45,14.72 "/>
    <path class="fil23" d="M20.45 10.02c5.61,-0.16 6.14,9.22 7.45,7.35 -0.01,1.61 -0.34,3.51 -0.9,4.17 -1.52,1.79 -4.56,0.23 -5.88,-1.96 0.62,-1.44 -1.29,-8.12 -0.67,-9.56z"/>
   </g>
   <g style="clip-path:url(#id44)">
    <g>
     <path id="_1_17" class="fil24" d="M20.39 8.15c3.59,0.82 6.15,3.54 9.74,4.35 -0.16,2.32 1.1,3.14 0.93,5.46 -0.14,-0.25 -1.71,1.87 -2.16,1.56 -0.55,-0.39 -0.52,-1.38 -0.97,-2.04 0,0 -0.18,0.18 -0.27,0.24 -0.36,0.25 -0.67,-0.37 -0.76,-0.55 -0.38,-0.7 -0.75,-1.46 -1.06,-2.03 -0.68,-1.28 -1.39,-2.38 -1.81,-2.84 -0.45,-0.5 -1.23,-1.2 -2.04,-1.49 -1.05,-0.37 -1.84,-0.19 -2.11,-0.15l0.51 -2.52z"/>
    </g>
   </g>
   <g style="clip-path:url(#id45)">
    <path class="fil4" d="M20.45 10.02c5.61,-0.16 6.14,9.22 7.45,7.35 -0.01,1.61 -0.34,3.51 -0.9,4.17 -1.52,1.79 -4.56,0.23 -5.88,-1.96 0.62,-1.44 -1.29,-8.12 -0.67,-9.56z"/>
    <rect class="fil25" x="18.66" y="22" width="8.56" height="7.61"/>
    <path class="fil26" d="M21.57 18.15c2.72,0.9 4.67,3.89 7.39,4.79 -0.12,2.55 -2.04,1.29 -2.16,3.85 -0.05,-0.34 -0.82,-0.28 -0.85,-0.67 -0.21,-2.27 -4.96,-3.48 -5.15,-5.12 0.69,-1.59 0.09,-1.26 0.78,-2.85z"/>
    <path class="fil27" d="M21.05 14.71c1.03,0.38 1.63,1.65 2.64,2.4 1.86,1.38 3.64,2.75 3.65,4.82 -0.11,2.32 -1.39,-1.39 -1.51,0.94 -0.86,-2.71 -4.63,-2.93 -5.98,-4.57 0.62,-1.44 0.57,-2.15 1.2,-3.59z"/>
    <path class="fil28" d="M22.46 16.51c2.05,2.3 3.86,2.58 5.33,5.33 -0.12,2.55 -0.74,1.75 -0.86,4.3 -0.94,-2.98 -5.09,-3.23 -6.58,-5.03 0.69,-1.59 1.42,-3.02 2.11,-4.61z"/>
   </g>
   <g style="clip-path:url(#id46)">
    <g>
     <path id="_1_18" class="fil29" d="M19.8 18.57c1.13,0.42 1.69,2.05 2.8,2.88 2.04,1.52 4.1,2.79 4.12,5.07 -0.12,2.55 -1.53,-1.52 -1.66,1.03 -0.94,-2.98 -5.09,-3.23 -6.58,-5.03 0.69,-1.59 0.63,-2.36 1.32,-3.95z"/>
     <path class="fil30 str11" d="M23.71 14.72c2.72,0.9 4.67,3.89 7.39,4.79 -0.12,2.55 -2.04,1.29 -2.16,3.85 -0.05,-0.34 -1.1,0.33 -1.14,-0.06 -0.26,-2.36 -3.94,-4.8 -4.3,-6.32 0.69,-1.59 -0.47,-0.67 0.21,-2.26z"/>
    </g>
   </g>
   <g style="clip-path:url(#id47)">
    <path class="fil4" d="M22.46 16.51c2.05,2.3 3.86,2.58 5.33,5.33 -0.12,2.55 -0.74,1.75 -0.86,4.3 -0.94,-2.98 -5.09,-3.23 -6.58,-5.03 0.69,-1.59 1.42,-3.02 2.11,-4.61z"/>
    <path class="fil31" d="M27.75 9.15c-1.62,-1.9 -8.05,-2.26 -4.42,1.45 1.17,1.2 2.14,2.53 2.74,4.27 0.2,0.57 0.5,1.32 0.83,2.03 0.15,0.32 0.32,0.53 0.46,0.72 0.78,1.06 1.44,0.9 1.65,1.27 0.99,1.68 3.68,-3.94 -1.26,-9.74z"/>
   </g>
  </g>
  <path class="fil4" d="M16.98 5.01c-2.94,-0.53 -7.18,3.04 -6.51,6.39 0.41,1.51 0.91,2.24 1.58,3.51 0.8,1.43 0.83,2.49 1.17,3.98 0.23,1.68 0.35,2.88 1.15,4.21 0.39,0.64 0.81,1.01 1.52,1.25 0.66,0.23 1.36,0.19 2.01,-0.18 0.44,-0.25 0.82,-0.6 0.99,-1.2 0.97,-3.34 -1.95,-4.21 -2.65,-6.53 -1.96,-6.47 2.44,-4.56 2.96,-6.78 0.44,-1.89 -0.15,-4.13 -2.22,-4.65z"/>
  <g>
  </g>
  <g style="clip-path:url(#id48)">
   <g>
    <path id="_1_19" class="fil1" d="M20.55 7.62c-5.15,-7.41 -11.44,0.6 -11.93,7.51 0.05,5.96 9.51,1.99 11.32,-1.01 -0.62,-1.44 1.24,-5.06 0.61,-6.5z"/>
    <polygon class="fil3" style="mask:url(#id49)" points="20.14,3.01 11.03,3.01 11.03,12.58 20.14,12.58 "/>
    <path class="fil32" d="M20.01 7.96c-5.6,-0.16 -6.14,9.22 -7.44,7.35 0.01,1.61 0.34,3.51 0.9,4.17 1.52,1.79 4.56,0.23 5.88,-1.96 -0.62,-1.44 1.29,-8.12 0.67,-9.56z"/>
   </g>
   <g style="clip-path:url(#id51)">
    <g>
     <path id="_1_20" class="fil24" d="M20.07 6.09c-3.59,0.82 -6.15,3.54 -9.74,4.36 0.16,2.32 -1.1,3.14 -0.93,5.46 0.14,-0.25 1.71,1.87 2.16,1.56 0.55,-0.39 0.52,-1.38 0.97,-2.04 0,0 0.18,0.18 0.27,0.24 0.36,0.25 0.67,-0.37 0.76,-0.55 0.38,-0.7 0.76,-1.46 1.06,-2.03 0.68,-1.28 1.39,-2.38 1.81,-2.84 0.45,-0.5 1.23,-1.2 2.04,-1.49 1.05,-0.37 1.84,-0.19 2.11,-0.15l-0.51 -2.52z"/>
    </g>
   </g>
   <g style="clip-path:url(#id52)">
    <path class="fil4" d="M20.01 7.96c-5.6,-0.16 -6.14,9.22 -7.44,7.35 0.01,1.61 0.34,3.51 0.9,4.17 1.52,1.79 4.56,0.23 5.88,-1.96 -0.62,-1.44 1.29,-8.12 0.67,-9.56z"/>
    <rect class="fil33" x="13.39" y="19.86" width="8.56" height="7.61"/>
    <path class="fil26" d="M19.03 16.01c-2.72,0.9 -4.67,3.89 -7.39,4.79 0.12,2.55 2.04,1.29 2.16,3.85 0.05,-0.34 0.82,-0.28 0.85,-0.67 0.21,-2.27 4.96,-3.48 5.15,-5.12 -0.69,-1.59 -0.09,-1.27 -0.78,-2.85z"/>
    <path class="fil27" d="M19.54 12.57c-1.03,0.38 -1.63,1.65 -2.64,2.4 -1.86,1.38 -3.64,2.75 -3.65,4.82 0.11,2.32 1.39,-1.39 1.51,0.94 0.86,-2.71 4.63,-2.93 5.98,-4.57 -0.62,-1.44 -0.57,-2.15 -1.2,-3.59z"/>
    <path class="fil34" d="M18.13 14.37c-2.05,2.3 -3.86,2.58 -5.33,5.33 0.12,2.55 0.74,1.75 0.86,4.3 0.94,-2.98 5.09,-3.23 6.58,-5.03 -0.69,-1.59 -1.42,-3.02 -2.11,-4.6z"/>
   </g>
   <g style="clip-path:url(#id53)">
    <g>
     <path id="_1_21" class="fil29" d="M20.79 16.43c-1.13,0.42 -1.69,2.05 -2.8,2.87 -2.04,1.52 -4.1,2.79 -4.12,5.07 0.12,2.55 1.53,-1.52 1.66,1.03 0.94,-2.98 5.09,-3.23 6.58,-5.03 -0.69,-1.59 -0.63,-2.36 -1.32,-3.95z"/>
     <path class="fil30 str11" d="M16.89 12.58c-2.72,0.9 -4.67,3.89 -7.39,4.79 0.12,2.55 2.04,1.29 2.16,3.85 0.05,-0.34 1.1,0.33 1.14,-0.06 0.26,-2.36 3.94,-4.8 4.3,-6.32 -0.69,-1.59 0.47,-0.67 -0.21,-2.26z"/>
    </g>
   </g>
   <g style="clip-path:url(#id54)">
    <path class="fil4" d="M18.13 14.37c-2.05,2.3 -3.86,2.58 -5.33,5.33 0.12,2.55 0.74,1.75 0.86,4.3 0.94,-2.98 5.09,-3.23 6.58,-5.03 -0.69,-1.59 -1.42,-3.02 -2.11,-4.6z"/>
    <path class="fil35" d="M12.85 7.01c1.62,-1.9 8.05,-2.26 4.42,1.45 -1.17,1.2 -2.14,2.53 -2.74,4.27 -0.2,0.57 -0.5,1.32 -0.83,2.03 -0.15,0.32 -0.32,0.53 -0.46,0.72 -0.78,1.06 -1.44,0.9 -1.65,1.27 -0.99,1.68 -3.68,-3.94 1.26,-9.74z"/>
   </g>
  </g>
  <g>
   <path class="fil21" d="M25.85 12.24c1.28,-0.23 3.12,1.32 2.83,2.78 -0.18,0.66 -0.39,0.97 -0.69,1.53 -0.35,0.62 -0.36,1.08 -0.51,1.73 -0.1,0.73 -0.15,1.25 -0.5,1.83 -0.17,0.28 -0.35,0.44 -0.66,0.55 -0.29,0.1 -0.59,0.08 -0.87,-0.08 -0.19,-0.11 -0.36,-0.26 -0.43,-0.52 -0.42,-1.45 0.57,-1.96 1.15,-2.84 0.41,-0.63 1.15,-1.82 0.08,-2.37 -0.32,-0.16 -0.73,0.12 -0.95,0.03 -0.23,-0.1 -0.39,-0.3 -0.45,-0.58 -0.22,-0.85 0.07,-1.83 1,-2.07z"/>
   <g>
    <path class="fil21" d="M26.13 10.72c0.06,0.14 0.05,0.32 0.01,0.5 -0.09,0.43 -0.38,0.75 -0.71,0.77 -0.33,0.02 -0.53,-0.42 -0.46,-0.82 0.05,-0.26 0.18,-0.54 0.39,-0.67 0.24,-0.15 0.65,-0.07 0.77,0.22z"/>
    <path class="fil21" d="M27.14 11.38c-0.07,0.63 -0.79,0.7 -0.83,0.05 -0.03,-0.42 0.34,-0.73 0.58,-0.68 0.19,0.04 0.28,0.35 0.25,0.63z"/>
    <path class="fil21" d="M27.68 11.35c0.29,0.02 0.32,0.26 0.28,0.48 -0.04,0.22 -0.22,0.35 -0.39,0.36 -0.48,0.03 -0.42,-0.87 0.11,-0.84z"/>
    <path class="fil21" d="M28.31 11.93c0.21,0.02 0.23,0.24 0.18,0.37 -0.04,0.13 -0.19,0.23 -0.3,0.23 -0.33,0.01 -0.27,-0.65 0.11,-0.61z"/>
    <path class="fil21" d="M28.81 12.54c0.2,0.01 0.22,0.23 0.17,0.35 -0.04,0.12 -0.17,0.21 -0.27,0.22 -0.33,0.01 -0.27,-0.59 0.1,-0.57z"/>
   </g>
  </g>
  <g>
   <path class="fil21" d="M14.63 10.05c-1.28,-0.23 -3.12,1.32 -2.83,2.78 0.18,0.66 0.39,0.97 0.69,1.53 0.35,0.62 0.36,1.08 0.51,1.73 0.1,0.73 0.15,1.25 0.5,1.83 0.17,0.28 0.35,0.44 0.66,0.55 0.29,0.1 0.59,0.08 0.87,-0.08 0.19,-0.11 0.36,-0.26 0.43,-0.52 0.42,-1.45 -0.57,-1.96 -1.15,-2.84 -0.41,-0.63 -1.15,-1.82 -0.08,-2.37 0.32,-0.16 0.73,0.12 0.95,0.03 0.23,-0.1 0.39,-0.3 0.45,-0.58 0.22,-0.85 -0.07,-1.83 -1,-2.07z"/>
   <g>
    <path class="fil21" d="M14.36 8.53c-0.06,0.14 -0.05,0.32 -0.01,0.5 0.09,0.43 0.39,0.75 0.71,0.77 0.33,0.02 0.53,-0.42 0.46,-0.82 -0.05,-0.26 -0.18,-0.54 -0.39,-0.67 -0.24,-0.15 -0.65,-0.07 -0.77,0.22z"/>
    <path class="fil21" d="M13.34 9.19c0.07,0.63 0.79,0.7 0.83,0.05 0.03,-0.42 -0.34,-0.73 -0.58,-0.68 -0.19,0.04 -0.28,0.35 -0.25,0.63z"/>
    <path class="fil21" d="M12.81 9.16c-0.29,0.02 -0.32,0.26 -0.28,0.48 0.04,0.22 0.22,0.35 0.39,0.36 0.48,0.03 0.42,-0.87 -0.11,-0.84z"/>
    <path class="fil21" d="M12.17 9.75c-0.21,0.02 -0.23,0.24 -0.18,0.37 0.04,0.13 0.19,0.23 0.3,0.23 0.33,0.01 0.27,-0.65 -0.11,-0.61z"/>
    <path class="fil21" d="M11.67 10.36c-0.2,0.01 -0.22,0.23 -0.17,0.35 0.04,0.12 0.17,0.21 0.27,0.22 0.33,0.01 0.27,-0.59 -0.1,-0.57z"/>
   </g>
  </g>
 </g>
</svg>
